<svg xmlns="http://www.w3.org/2000/svg" width="412.482" height="264.32" viewBox="0 0 412.482 264.32"><path d="M4.068,0H408.414a3.822,3.822,0,0,1,4.068,3.515V260.805a3.822,3.822,0,0,1-4.068,3.515H4.068A3.822,3.822,0,0,1,0,260.805V3.515A3.822,3.822,0,0,1,4.068,0Z" transform="translate(0 0)" fill="#f7fafe"/><g transform="translate(126.938 82.725)"><g transform="translate(0 0)"><g transform="translate(29.955 65.609)"><rect width="63" height="12" rx="2" transform="translate(0.107 -0.334)"/><rect width="32" height="12" rx="2" transform="translate(66.107 -0.334)" fill="rgba(0,0,0,0.5)"/></g><g transform="translate(12.839 41.362)"><rect width="132" height="3" rx="1" transform="translate(0.223 -0.087)" fill="#4717b3" opacity="0.5"/><rect width="74" height="2" rx="1" transform="translate(0.223 8.913)" fill="#4717b3" opacity="0.5"/></g><text transform="translate(78.063 13.275)" font-size="14" font-family="Roboto-Bold, Roboto" font-weight="700" opacity="0.4"><tspan x="-57.873" y="0">This could be your</tspan><tspan x="-78.316" y="13">Amazing startup website</tspan></text></g></g><g transform="translate(141.202 24.247)"><g transform="translate(0 0)"><rect width="22" height="2" rx="1" transform="translate(76.797 4.753)" opacity="0.7" style="mix-blend-mode:darken;isolation:isolate"/><rect width="21" height="2" rx="1" transform="translate(51.797 4.753)" fill="#4717b3" opacity="0.6"/><rect width="21" height="2" rx="1" transform="translate(25.797 4.753)" fill="#4717b3" opacity="0.6"/><rect width="22" height="2" rx="1" transform="translate(-0.203 4.753)" fill="#4717b3" opacity="0.6"/><rect width="28" height="12" rx="2" transform="translate(102.797 -0.247)" opacity="0.7" style="mix-blend-mode:darken;isolation:isolate"/></g></g><rect width="95" height="53" rx="5" transform="translate(50 207)" fill="rgba(50,50,50,0.2)"/><rect width="97" height="53" rx="5" transform="translate(268 207)" fill="rgba(50,50,50,0.2)"/><rect width="95" height="53" rx="5" transform="translate(160 207)" fill="rgba(50,50,50,0.2)"/></svg>