<svg xmlns="http://www.w3.org/2000/svg" xmlns:xlink="http://www.w3.org/1999/xlink" width="649.5" height="370" viewBox="0 0 649.5 370"><defs><filter id="a" x="441.5" y="231.5" width="208" height="111" filterUnits="userSpaceOnUse"><feOffset dy="19" input="SourceAlpha"/><feGaussianBlur stdDeviation="8.5" result="b"/><feFlood flood-opacity="0.082"/><feComposite operator="in" in2="b"/><feComposite in="SourceGraphic"/></filter><linearGradient id="c" x1="0.5" x2="0.5" y2="1" gradientUnits="objectBoundingBox"><stop offset="0" stop-color="#dde1e6"/><stop offset="1" stop-color="#f0f3f6"/></linearGradient></defs><g transform="translate(-101 -15)"><g transform="translate(155 9)"><path d="M5.694,0H571.7c3.145,0,5.694,2.2,5.694,4.92V365.08c0,2.717-2.549,4.92-5.694,4.92H5.694C2.549,370,0,367.8,0,365.08V4.92C0,2.2,2.549,0,5.694,0Z" transform="translate(-35.199 6)" fill="#f7fafe"/><g transform="translate(111)"><g transform="translate(38 120)"><g transform="translate(35.001)"><rect width="89" height="16" rx="2" transform="translate(0 93)"/><rect width="46" height="16" rx="2" transform="translate(93 93)" fill="rgba(0,0,0,0.5)"/></g><g transform="translate(12.001)"><rect width="185" height="4" rx="1" transform="translate(0 60)" fill="#4717b3" opacity="0.5"/><rect width="103" height="4" rx="1" transform="translate(0 72)" fill="#4717b3" opacity="0.5"/></g><text transform="translate(105 21)" font-size="20" font-family="Roboto-Bold, Roboto" font-weight="700" opacity="0.4"><tspan x="-82.676" y="0">This could be your</tspan><tspan x="-111.88" y="17">Amazing startup website</tspan></text></g></g><g transform="translate(-139 23)"><g transform="translate(21 17)"><rect width="29" height="5" rx="2" transform="translate(389 5)" opacity="0.7" style="mix-blend-mode:darken;isolation:isolate"/><rect width="29" height="5" rx="2" transform="translate(353 5)" fill="#4717b3" opacity="0.6"/><rect width="29" height="5" rx="2" transform="translate(317 5)" fill="#4717b3" opacity="0.6"/><rect width="29" height="5" rx="2" transform="translate(281 5)" fill="#4717b3" opacity="0.6"/><rect width="39" height="15" rx="2" transform="translate(425)" opacity="0.7" style="mix-blend-mode:darken;isolation:isolate"/></g></g><rect width="134" height="74" rx="5" transform="translate(35 296)" fill="rgba(50,50,50,0.2)"/><rect width="134" height="74" rx="5" transform="translate(341 296)" fill="rgba(50,50,50,0.2)"/><rect width="134" height="74" rx="5" transform="translate(188 296)" fill="rgba(50,50,50,0.2)"/></g><g transform="translate(568 253)"><g transform="matrix(1, 0, 0, 1, -467, -238)" filter="url(#a)"><rect width="157" height="60" rx="5" transform="translate(467 238)"/></g><rect width="157" height="60" rx="5" fill="#fff"/></g><g transform="translate(581 260)"><path d="M0,53,28.9,36.7H57.7L86.6,22.5l28.8-3.7L144.4,3V48a5,5,0,0,1-5,5Z" fill="url(#c)"/><circle cx="3" cy="3" r="3" transform="translate(24.3 34)" fill="#87939e" stroke="#fff" stroke-width="2"/><circle cx="3" cy="3" r="3" transform="translate(53 33)" fill="#87939e" stroke="#fff" stroke-width="2"/><circle cx="3" cy="3" r="3" transform="translate(82.5 19)" fill="#87939e" stroke="#fff" stroke-width="2"/><circle cx="3" cy="3" r="3" transform="translate(111.2 15)" fill="#87939e" stroke="#fff" stroke-width="2"/><circle cx="3" cy="3" r="3" transform="translate(141.6 -1)" fill="#87939e" stroke="#fff" stroke-width="2"/></g><path d="M566.5,271.3l2-6.1H570l-2.8,7.8H566l-2.8-7.8h1.5l2,6.1ZM573,273h-1.3v-7.8H573Zm6.5-2a1,1,0,0,0-.4-.8,3.12,3.12,0,0,0-1.3-.6l-1.5-.6a2.006,2.006,0,0,1-1-1.8,1.8,1.8,0,0,1,.7-1.5,3.173,3.173,0,0,1,2-.6,2.544,2.544,0,0,1,1.5.3l1,.8a2.836,2.836,0,0,1,.4,1.3h-1.4a1.159,1.159,0,0,0-.4-1,1.493,1.493,0,0,0-1-.3c-.5,0-.9,0-1.1.2a1,1,0,0,0-.4.8,1.234,1.234,0,0,0,.4.8l1.3.5a6,6,0,0,1,1.5.6l.8.8a1.932,1.932,0,0,1-.5,2.6,3.173,3.173,0,0,1-2,.6,3.8,3.8,0,0,1-1.6-.3,1.789,1.789,0,0,1-1-.9,2.2,2.2,0,0,1-.5-1.3h1.4a1.053,1.053,0,0,0,.4,1,1.7,1.7,0,0,0,1.3.4c.5,0,.8,0,1-.3a1,1,0,0,0,.4-.7Zm4.7,2h-1.4v-7.8h1.4Zm7.9-6.7h-2.5V273h-1.3v-6.7h-2.5v-1.1h6.3v1.1Zm7.8,3a5.917,5.917,0,0,1-.4,2,3,3,0,0,1-2.9,1.8,3.1,3.1,0,0,1-1.7-.5,3,3,0,0,1-1.1-1.3,4.211,4.211,0,0,1-.4-2v-.4a4.211,4.211,0,0,1,.4-2,3.814,3.814,0,0,1,1.1-1.4,3.813,3.813,0,0,1,3.4,0,3.325,3.325,0,0,1,1.2,1.4,5.44,5.44,0,0,1,.4,2Zm-1.4-.4a3.677,3.677,0,0,0-.5-2,1.513,1.513,0,0,0-1.4-.7,1.622,1.622,0,0,0-1.4.7,3.677,3.677,0,0,0-.5,2v.4a3.677,3.677,0,0,0,.5,2,1.622,1.622,0,0,0,1.4.7,1.513,1.513,0,0,0,1.4-.7,3.677,3.677,0,0,0,.5-2Zm6.3,1h-1.5V273h-1.4v-7.8h2.8a2.814,2.814,0,0,1,2,.6,1.88,1.88,0,0,1,.8,1.7,2.116,2.116,0,0,1-.4,1.4,2.723,2.723,0,0,1-1,.8l1.7,3.2v.1h-1.4l-1.6-3Zm-1.5-1h1.4a1.493,1.493,0,0,0,1-.3,1.284,1.284,0,0,0,.4-1,1.209,1.209,0,0,0-.3-1,1.689,1.689,0,0,0-1-.3h-1.5v2.6Zm10.3,2a1,1,0,0,0-.4-.7l-1.3-.6-1.5-.6a2.006,2.006,0,0,1-1-1.8,1.8,1.8,0,0,1,.7-1.5,3.173,3.173,0,0,1,2-.6,2.7,2.7,0,0,1,1.5.3l1,.8a2.768,2.768,0,0,1,.3,1.3h-1.3a1.528,1.528,0,0,0-.4-1,1.8,1.8,0,0,0-1.1-.3c-.5,0-.8,0-1,.2a1,1,0,0,0-.4.8.909.909,0,0,0,.4.8l1.3.5a6,6,0,0,1,1.5.6l.8.8.2,1a1.865,1.865,0,0,1-.7,1.6,3.173,3.173,0,0,1-2,.6,3.8,3.8,0,0,1-1.6-.3,2.012,2.012,0,0,1-1.1-.9,2.2,2.2,0,0,1-.4-1.3h1.3a1.1,1.1,0,0,0,.5,1,1.7,1.7,0,0,0,1.3.4c.4,0,.8,0,1-.3a1,1,0,0,0,.4-.7Z" transform="translate(15)" fill="#493636" opacity="0.4"/><g transform="translate(101 58)"><rect width="38" height="121" rx="3" fill="#24292e"/><path d="M19,90a9,9,0,1,0,9,9A9,9,0,0,0,19,90Zm-.9,16.2a7.3,7.3,0,0,1-6.1-9l4.3,4.4v1a1.793,1.793,0,0,0,1.8,1.8v1.8Zm6.2-1.8a1.831,1.831,0,0,0-1.7-1.3h-.9v-2.7a1,1,0,0,0-.9-1H15.4V97.6h1.8a1,1,0,0,0,.9-.9V95h1.8a1.793,1.793,0,0,0,1.8-1.8v-.4a7.3,7.3,0,0,1,4.5,6.8,7.141,7.141,0,0,1-1.9,4.9Zm1-46.1-8.7-9a1,1,0,0,0-1.5,0,1.1,1.1,0,0,0,0,1.5l1.8,1.9-5.4,5.6a1.6,1.6,0,0,0,0,2.3l5.8,6a1.573,1.573,0,0,0,2.2-.1l5.8-6a1.6,1.6,0,0,0,0-2.2Zm-12,1.1,5-5.2,5.1,5.2H13.3ZM28,61s-2.1,2.4-2.1,3.8a2.191,2.191,0,0,0,2,2.2,2.156,2.156,0,0,0,2.2-2.2C30.1,63.4,28,61,28,61ZM11,25v2.7a.4.4,0,0,0,.4.4h2.7a.4.4,0,0,0,.4-.1l9.7-9.7-3.4-3.4-9.7,9.7a.4.4,0,0,0-.1.4Zm15.7-9.3a.9.9,0,0,0,0-1.3l-2-2a.9.9,0,0,0-1.3,0L21.8,14l3.3,3.3,1.6-1.6Z" fill="#fff"/></g></g></svg>