<svg xmlns="http://www.w3.org/2000/svg" width="89" height="28" viewBox="0 0 89 28"><g transform="translate(-294 -1030)"><g transform="translate(130 130)"><g transform="translate(164 900)"><path d="M46.9,7.035A1.807,1.807,0,1,1,45.1,5.213,1.811,1.811,0,0,1,46.9,7.035Zm-7.451,3.672v.448a3.464,3.464,0,0,0-2.7-1.121,5.345,5.345,0,0,0-5.394,5.55,5.345,5.345,0,0,0,5.394,5.55,3.368,3.368,0,0,0,2.7-1.149v.477a.382.382,0,0,0,.389.392h2.252V10.314H39.843A.4.4,0,0,0,39.453,10.707Zm0,6.755A2.757,2.757,0,0,1,37.2,18.611a2.922,2.922,0,0,1-3.142-3.027A2.922,2.922,0,0,1,37.2,12.557a2.833,2.833,0,0,1,2.252,1.149Zm4.31-7.147h2.669V20.853H43.763Zm39.871-.28a3.463,3.463,0,0,0-2.7,1.121V5.241H78.268V20.853H80.52a.4.4,0,0,0,.389-.392v-.477a3.434,3.434,0,0,0,2.7,1.149A5.361,5.361,0,0,0,89,15.584a5.355,5.355,0,0,0-5.366-5.55Zm-.445,8.549a2.716,2.716,0,0,1-2.252-1.149V13.678a3.009,3.009,0,0,1,2.252-1.149,2.922,2.922,0,0,1,3.142,3.027,2.922,2.922,0,0,1-3.142,3.027ZM76.878,14.6v6.278H74.208v-5.97c0-1.738-.556-2.438-2.057-2.438a2.975,2.975,0,0,0-2.169,1.037v7.343H67.313V10.314h2.113a.4.4,0,0,1,.389.392v.448a3.814,3.814,0,0,1,2.836-1.121,4.307,4.307,0,0,1,2.919,1.009c.945.785,1.307,1.794,1.307,3.56ZM60.835,10.034a3.463,3.463,0,0,0-2.7,1.121V5.241H55.468V20.853h2.252a.4.4,0,0,0,.389-.392v-.477a3.433,3.433,0,0,0,2.7,1.149,5.361,5.361,0,0,0,5.394-5.55,5.322,5.322,0,0,0-5.366-5.55Zm-.445,8.549a2.717,2.717,0,0,1-2.252-1.149V13.678a3.01,3.01,0,0,1,2.252-1.149,2.922,2.922,0,0,1,3.142,3.027,2.922,2.922,0,0,1-3.142,3.027Zm-7.229-8.549a4.223,4.223,0,0,1,1.223.14v2.495a3.546,3.546,0,0,0-3.615.841v7.371H48.1V10.314h2.252a.4.4,0,0,1,.389.392v.448a3.639,3.639,0,0,1,2.419-1.121ZM25.44,19.9c-.139-.336-.278-.7-.417-1.009-.222-.5-.445-.981-.639-1.429l-.028-.028c-1.919-4.2-3.973-8.464-6.142-12.669L18.131,4.6c-.222-.42-.445-.869-.667-1.317a8.064,8.064,0,0,0-1-1.542A4.478,4.478,0,0,0,12.931,0,4.652,4.652,0,0,0,9.372,1.682a9.671,9.671,0,0,0-1,1.542c-.222.448-.445.9-.667,1.317l-.083.168c-2.141,4.2-4.226,8.464-6.145,12.669l-.028.056c-.195.449-.417.925-.639,1.43Q.6,19.325.392,19.872A6.343,6.343,0,0,0,.058,22.9a5.949,5.949,0,0,0,3.615,4.653A5.67,5.67,0,0,0,5.925,28a6.26,6.26,0,0,0,.723-.056,7.307,7.307,0,0,0,2.78-.953,14.108,14.108,0,0,0,3.448-2.915,14.641,14.641,0,0,0,3.448,2.915,7.307,7.307,0,0,0,2.78.953,6.262,6.262,0,0,0,.723.056,5.553,5.553,0,0,0,2.249-.448A5.937,5.937,0,0,0,25.69,22.9a5.336,5.336,0,0,0-.25-3ZM12.9,21.357A13.861,13.861,0,0,1,10.1,16.144a4.556,4.556,0,0,1-.083-1.71,2.732,2.732,0,0,1,.445-1.177A2.944,2.944,0,0,1,12.9,12.024a2.84,2.84,0,0,1,2.447,1.233,2.732,2.732,0,0,1,.445,1.177,4.535,4.535,0,0,1-.083,1.71A14.286,14.286,0,0,1,12.9,21.357Zm11.091,1.317a4.148,4.148,0,0,1-4.64,3.559,5.437,5.437,0,0,1-2.113-.729,13.009,13.009,0,0,1-3.17-2.719,15.848,15.848,0,0,0,3.364-6.194,7.081,7.081,0,0,0,.139-2.382,4.568,4.568,0,0,0-.751-1.906,4.673,4.673,0,0,0-3.92-1.99,4.745,4.745,0,0,0-3.92,1.99,4.569,4.569,0,0,0-.751,1.906,5.865,5.865,0,0,0,.139,2.382,16.306,16.306,0,0,0,3.364,6.222,12.516,12.516,0,0,1-3.17,2.719,5.438,5.438,0,0,1-2.113.729,4.416,4.416,0,0,1-2.113-.28A4.16,4.16,0,0,1,1.81,22.7a4.675,4.675,0,0,1,.25-2.186c.083-.28.222-.561.361-.9.195-.448.417-.925.639-1.4l.028-.056C5.007,13.986,7.065,9.726,9.205,5.578l.083-.168c.222-.42.445-.869.667-1.289a6.167,6.167,0,0,1,.778-1.233,2.9,2.9,0,0,1,4.449,0,6.163,6.163,0,0,1,.778,1.233c.222.42.445.869.667,1.289l.083.168c2.113,4.176,4.171,8.436,6.086,12.613v.028c.222.448.417.953.639,1.4.139.336.278.617.361.9a4.771,4.771,0,0,1,.195,2.158Z" fill="#c0c7d1"/></g></g></g></svg>