<svg xmlns="http://www.w3.org/2000/svg" width="142" height="28" viewBox="0 0 142 28"><g transform="translate(-633 -1030)"><g transform="translate(130 130)"><g transform="translate(164 900)"><g transform="translate(339)"><path d="M117.362,9.641a11.216,11.216,0,0,0-5.908,0,7.138,7.138,0,0,0-5.53,5.642,18.944,18.944,0,0,0-.32,5.026,7.669,7.669,0,0,0,6.169,7.382h.155c.136,0,.281.1.417.1h.145c.174,0,.388.1.61.1a8.386,8.386,0,0,0,2.373,0h.116a7.769,7.769,0,0,0,7.419-6.238,13.5,13.5,0,0,0,0-6.033,7.486,7.486,0,0,0-5.7-6.023ZM117.6,20.67a.491.491,0,0,1-.1.352,2.991,2.991,0,0,1-3.206,2.523,3.031,3.031,0,0,1-3.1-2.855,19.777,19.777,0,0,1,0-3.862,3.039,3.039,0,0,1,3.293-3.09,3,3,0,0,1,3.031,2.415,18.625,18.625,0,0,1,.1,4.517ZM125.139.714V27.622h5.656V19.389l5.21,8.242H142l-5.656-8.956L142,9.758h-5.995l-5.21,8.223V.02ZM64.928,19.262a25.267,25.267,0,0,0-.184-3.735,6.646,6.646,0,0,0-5.792-6.052,16.373,16.373,0,0,0-3.855-.1c-3.487.332-6.131,2.523-6.673,5.827a21.325,21.325,0,0,0-.106,6.131c.4,3.021,1.86,4.948,4.377,5.876,1.153.352,6.789,1.838,11.748-.684l-.2-.733c-.232-.987-.5-1.955-.765-2.933v-.1a.7.7,0,0,0-.291.1,5.462,5.462,0,0,1-.649.2h-.116a20.949,20.949,0,0,1-2.964.626,14.231,14.231,0,0,1-2.886,0,2.848,2.848,0,0,1-2.722-3.129H64.937v-.2Zm-5.085-2.454H53.732a3.278,3.278,0,0,1,1.259-3.06,3.362,3.362,0,0,1,3.593-.108c1.2.665,1.288,1.868,1.259,3.168ZM47.524,26.321c-.242-.9-.523-1.8-.794-2.66l-.252-.958s-6.615,3.207-7.641-2.884a10.59,10.59,0,0,1,.1-3.031,3.249,3.249,0,0,1,3.186-3.041,5.82,5.82,0,0,1,1.84.1c.823.137,1.617.391,2.518.616.31-.958.63-1.916.93-2.875a.882.882,0,0,0,.116-.391l.145-.577c0-.1-.126-.156-.252-.235A2.92,2.92,0,0,0,46.6,10a1.9,1.9,0,0,0-.484-.166.486.486,0,0,0-.242-.1,13.935,13.935,0,0,0-5.327-.352,7.6,7.6,0,0,0-7.128,6.434,14.352,14.352,0,0,0,.1,5.954,7.206,7.206,0,0,0,5.327,5.739A13,13,0,0,0,44.6,27.8a17.656,17.656,0,0,0,2.809-.851l.32-.117-.155-.508ZM26.139,11.85a2.514,2.514,0,0,1-.184-.205l-.136-.137a5.5,5.5,0,0,0-2.75-1.926,6.9,6.9,0,0,0-8.755,4.781A15.586,15.586,0,0,0,14,21.647c.92,5.251,4.784,7.011,8.91,6.14a5.333,5.333,0,0,0,3.08-2.171.953.953,0,0,0,.174-.284v2.308h5.278V9.562H26.169V11.85Zm-.465,9.083a2.868,2.868,0,0,1-3.1,2.611,3.03,3.03,0,0,1-3.041-2.513,16.585,16.585,0,0,1,.116-5.1,2.852,2.852,0,0,1,3.089-2.2,2.8,2.8,0,0,1,2.935,2.591,22.974,22.974,0,0,1,0,4.615ZM13.239,9.553H9.2V6.844c.291-2.562,4.484-2.073,4.484-2.073V.391C13.54.391,5.356-1.6,3.729,4.683A31.866,31.866,0,0,0,3.5,9.523H0v4.82H3.709v13.1h5.4v-13.1h4.135l.465-4.82h-.465Zm84.849.088a11.215,11.215,0,0,0-5.908,0,7.164,7.164,0,0,0-5.54,5.642,18.969,18.969,0,0,0-.32,5.026A7.677,7.677,0,0,0,92.5,27.69h.155c.136,0,.281.1.416.1h.145c.174,0,.387.1.61.1a8.385,8.385,0,0,0,2.373,0h.116a7.769,7.769,0,0,0,7.419-6.238,13.5,13.5,0,0,0,0-6.033,7.512,7.512,0,0,0-5.7-6.023Zm.232,11.029a.492.492,0,0,1-.1.352,2.991,2.991,0,0,1-3.206,2.523,3.031,3.031,0,0,1-3.1-2.855,20.573,20.573,0,0,1,0-3.862,3.039,3.039,0,0,1,3.293-3.09,3,3,0,0,1,3.031,2.415,17.68,17.68,0,0,1,.1,4.517ZM78.051,9.308a5.9,5.9,0,0,0-5.54,2.317V0L66.855.694v26.9h5.656V26a10.449,10.449,0,0,0,2.373,1.525c3.293,1.193,7.632.225,9.152-4.224a14.921,14.921,0,0,0,.213-8.663,6.608,6.608,0,0,0-6.2-5.329ZM78.9,20.963a3.23,3.23,0,0,1-4.426,2.317,3.882,3.882,0,0,1-1.859-2.894c-.1-1.261-.194-3.9.416-5.143a2.893,2.893,0,0,1,2.615-1.516,2.85,2.85,0,0,1,3.244,2.542,16.929,16.929,0,0,1,0,4.693Z" fill="#c0c7d1"/></g></g></g></g></svg>