<svg xmlns="http://www.w3.org/2000/svg" width="110.86" height="27.908" viewBox="0 0 110.86 27.908"><g transform="translate(-859 -1030)"><g transform="translate(130 130)"><g transform="translate(164 900)"><g transform="translate(565)"><path d="M0,4.128H4.333V19.809h8.024v3.972H0V4.128" fill="#c0c7d1"/><path d="M16.353,3.836a2.4,2.4,0,1,1-2.415,2.4,2.409,2.409,0,0,1,2.415-2.4ZM14.27,10.457h4.165V23.776H14.27Z" fill="#c0c7d1"/><path d="M20.739,10.459h4v1.82h.056a4.38,4.38,0,0,1,3.943-2.151c4.221,0,5,2.758,5,6.343v7.3H29.569V17.3c0-1.546-.029-3.531-2.167-3.531-2.165,0-2.5,1.683-2.5,3.42v6.587H20.739V10.459" fill="#c0c7d1"/><path d="M35.846,4.126h4.163V15.872l4.717-5.421h5.1l-5.463,6.166,5.348,7.163H44.483L40.064,17.2h-.055v6.584H35.846V4.126" fill="#c0c7d1"/><path d="M62.124,21.469a7.351,7.351,0,0,1-5.692,2.65c-4.164,0-7.5-2.76-7.5-7.035s3.332-7.033,7.5-7.033c3.889,0,6.331,2.758,6.331,7.033v1.3H53.1a3.1,3.1,0,0,0,3.137,2.593,3.559,3.559,0,0,0,2.971-1.628l2.915,2.124Zm-3.526-5.9a2.489,2.489,0,0,0-2.556-2.538A2.77,2.77,0,0,0,53.1,15.568Z" fill="#c0c7d1"/><path d="M78.6,23.774H74.771V22.007h-.054a5.247,5.247,0,0,1-4.138,2.1c-4,0-6.637-2.868-6.637-6.923,0-3.725,2.332-7.145,6.164-7.145A5.048,5.048,0,0,1,74.382,11.8h.055V4.126H78.6V23.774Zm-7.167-10.1a3.145,3.145,0,0,0-3.33,3.393,3.332,3.332,0,1,0,6.664,0,3.146,3.146,0,0,0-3.334-3.393Z" fill="#c0c7d1"/><path d="M108.781,0a2.048,2.048,0,0,1,2.079,2.012V25.895a2.049,2.049,0,0,1-2.079,2.014H84.842a2.045,2.045,0,0,1-2.073-2.014V2.012A2.044,2.044,0,0,1,84.842,0ZM89.018,3.842a2.4,2.4,0,1,0,2.415,2.4A2.408,2.408,0,0,0,89.018,3.842Zm-2.084,6.621V23.782H91.1V10.463Zm6.78,0V23.782h4.163V17.193c0-1.737.332-3.42,2.5-3.42,2.137,0,2.165,1.986,2.165,3.532v6.477h4.164V16.476c0-3.586-.779-6.344-5-6.344a4.383,4.383,0,0,0-3.942,2.151H97.71v-1.82Z" fill="#c0c7d1"/></g></g></g></g></svg>