<svg xmlns="http://www.w3.org/2000/svg" width="93" height="28" viewBox="0 0 93 28"><g transform="translate(-1053 -1030)"><g transform="translate(130 130)"><g transform="translate(164 900)"><g transform="translate(759)"><path d="M22.356,12.411c-4.528-2.68-12-2.926-16.319-1.619a1.31,1.31,0,1,1-.763-2.506c4.962-1.5,13.21-1.211,18.423,1.873a1.311,1.311,0,1,1-1.341,2.252Zm-.148,3.97a1.1,1.1,0,0,1-1.506.359,18.492,18.492,0,0,0-14-1.632,1.092,1.092,0,1,1-.637-2.089,20.553,20.553,0,0,1,15.78,1.86A1.09,1.09,0,0,1,22.208,16.381Zm-1.719,3.812a.876.876,0,0,1-1.2.29c-3.3-2.009-7.451-2.463-12.34-1.35a.873.873,0,1,1-.39-1.7c5.351-1.219,9.941-.694,13.643,1.56A.871.871,0,0,1,20.489,20.193ZM14.047,0A14,14,0,1,0,28.094,14,14.023,14.023,0,0,0,14.047,0Z" fill="#c0c7d1" fill-rule="evenodd"/><path d="M38.156,12.844c-2.417-.576-2.847-.981-2.847-1.831,0-.8.756-1.344,1.881-1.344a5.5,5.5,0,0,1,3.3,1.255.158.158,0,0,0,.12.029.156.156,0,0,0,.1-.065L41.9,9.226a.159.159,0,0,0-.03-.215A7.14,7.14,0,0,0,37.225,7.4c-2.61,0-4.433,1.566-4.433,3.807,0,2.4,1.573,3.254,4.29,3.911,2.313.533,2.7.979,2.7,1.777,0,.884-.789,1.434-2.06,1.434a5.552,5.552,0,0,1-3.849-1.59.167.167,0,0,0-.116-.038.157.157,0,0,0-.108.056l-1.323,1.575a.157.157,0,0,0,.016.219A7.889,7.889,0,0,0,37.673,20.6c2.812,0,4.63-1.537,4.63-3.915,0-2.01-1.2-3.122-4.146-3.838" fill="#c0c7d1" fill-rule="evenodd"/><path d="M50.46,15.72a2.609,2.609,0,0,1-2.525,2.894,2.689,2.689,0,0,1-2.578-2.894,2.689,2.689,0,0,1,2.578-2.894A2.638,2.638,0,0,1,50.46,15.72Zm-2.027-5.1a3.749,3.749,0,0,0-3.022,1.47V10.979a.158.158,0,0,0-.157-.159H43.1a.158.158,0,0,0-.157.159V23.335a.158.158,0,0,0,.157.159h2.149a.158.158,0,0,0,.157-.159v-3.9a3.841,3.841,0,0,0,3.022,1.383c2.249,0,4.526-1.751,4.526-5.1S50.682,10.621,48.433,10.621Z" fill="#c0c7d1" fill-rule="evenodd"/><path d="M59.1,18.7A2.766,2.766,0,0,1,56.4,15.761a2.7,2.7,0,0,1,2.672-2.9A2.774,2.774,0,0,1,61.792,15.8,2.708,2.708,0,0,1,59.1,18.7Zm0-8.076a5.149,5.149,0,1,0,5.157,5.14A5.121,5.121,0,0,0,59.1,10.621Z" fill="#c0c7d1" fill-rule="evenodd"/><path d="M70.24,10.647H67.89V8.2a.157.157,0,0,0-.156-.159H65.6a.158.158,0,0,0-.157.159v2.442H64.416a.157.157,0,0,0-.156.159v1.865a.157.157,0,0,0,.156.159h1.027v4.827c0,1.951.955,2.94,2.839,2.94a3.846,3.846,0,0,0,2-.506.159.159,0,0,0,.079-.138V18.177a.16.16,0,0,0-.074-.135.154.154,0,0,0-.152-.007,2.656,2.656,0,0,1-1.253.308c-.685,0-.991-.316-.991-1.025V12.831h2.35a.157.157,0,0,0,.156-.159V10.806a.157.157,0,0,0-.156-.159" fill="#c0c7d1" fill-rule="evenodd"/><path d="M78.552,10.816v-.3c0-.881.337-1.273,1.092-1.273a3.634,3.634,0,0,1,1.217.225.158.158,0,0,0,.208-.151V7.491a.159.159,0,0,0-.112-.152,5.916,5.916,0,0,0-1.8-.259c-2,0-3.049,1.127-3.049,3.258V10.8H75.075a.159.159,0,0,0-.158.159v1.872a.159.159,0,0,0,.158.159h1.038v7.432a.158.158,0,0,0,.158.159h2.16a.159.159,0,0,0,.158-.159V12.985H80.6l3.089,7.43c-.351.781-.7.936-1.166.936a2.485,2.485,0,0,1-1.191-.339.156.156,0,0,0-.219.074L80.385,22.7a.158.158,0,0,0,.068.2,4.538,4.538,0,0,0,2.307.592c1.595,0,2.476-.745,3.253-2.75l3.747-9.712a.159.159,0,0,0-.017-.147.157.157,0,0,0-.13-.069H87.365a.159.159,0,0,0-.15.106l-2.3,6.6-2.523-6.6a.157.157,0,0,0-.147-.1H78.552" fill="#c0c7d1" fill-rule="evenodd"/><path d="M74.106,10.621H71.853a.161.161,0,0,0-.165.157v9.342a.161.161,0,0,0,.165.157h2.253a.161.161,0,0,0,.165-.157V10.778a.161.161,0,0,0-.165-.157" fill="#c0c7d1" fill-rule="evenodd"/><path d="M72.98,6.437a1.609,1.609,0,1,0,1.614,1.609A1.612,1.612,0,0,0,72.98,6.437" fill="#c0c7d1" fill-rule="evenodd"/><path d="M91.627,11.529H91.25v.48h.377c.188,0,.3-.092.3-.24S91.816,11.529,91.627,11.529Zm.245.684.41.572h-.346l-.369-.525H91.25v.525h-.289V11.269h.678c.353,0,.586.18.586.484A.453.453,0,0,1,91.872,12.213Zm-.321-1.449a1.3,1.3,0,1,0,1.3,1.3A1.294,1.294,0,0,0,91.551,10.764Zm-.008,2.753A1.448,1.448,0,1,1,93,12.064,1.441,1.441,0,0,1,91.543,13.517Z" fill="#c0c7d1" fill-rule="evenodd"/></g></g></g></g></svg>