<svg xmlns="http://www.w3.org/2000/svg" width="68" height="68" viewBox="0 0 68 68"><g transform="translate(-11160 5940)"><g transform="translate(11160 -5940)"><circle cx="13.983" cy="13.983" r="13.983" transform="translate(0.91 47.789) rotate(-45)" fill="rgba(83,64,255,0.17)"/><circle cx="13.983" cy="13.983" r="13.983" transform="translate(28.422 20.211) rotate(-45)" fill="rgba(83,64,255,0.17)"/><g fill="#4717b3" stroke-dasharray="220 250"><path d="M34,0A34,34,0,1,1,0,34,34,34,0,0,1,34,0Z" stroke="none"/><path d="M 34 0 C 52.77766799926758 0 68 15.22233200073242 68 34 C 68 52.77766799926758 52.77766799926758 68 34 68 C 15.22233200073242 68 0 52.77766799926758 0 34 C 0 15.22233200073242 15.22233200073242 0 34 0 L 34 25 C 29.0373649597168 25 25 29.0373649597168 25 34 C 25 38.96263122558594 29.0373649597168 43 34 43 C 38.96263122558594 43 43 38.96263122558594 43 34 C 43 29.0373649597168 38.96263122558594 25 34 25 L 34 0 C 34 0 34 0 34 0 Z" stroke="none" fill="#fff"/></g></g></g></svg>